<svg width="129" height="25" viewBox="0 0 129 25" fill="none" xmlns="http://www.w3.org/2000/svg">
<path d="M2.60253 22.0513C1.46836 20.3682 0.905343 18.3503 1.00003 16.3077V7.79487C0.862683 5.73031 1.39044 3.67661 2.50238 1.94872C3.6041 0.615385 5.30676 0 7.81067 0C10.3146 0 11.9171 0.615385 12.9187 1.74359C14.006 3.17255 14.5409 4.96181 14.421 6.76923V8.82051H9.51333V6.46154C9.55297 5.76385 9.45065 5.06533 9.21286 4.41026C9.08576 4.14583 8.88431 3.9264 8.63443 3.78018C8.38455 3.63395 8.09766 3.56763 7.81067 3.58974C7.10958 3.58974 6.60879 3.79487 6.40848 4.30769C6.18191 5.03643 6.08025 5.79984 6.10801 6.5641V17.5385C6.05512 18.2799 6.19327 19.0227 6.50864 19.6923C6.70895 20.2051 7.20973 20.4103 7.91083 20.4103C8.61192 20.4103 9.01255 20.2051 9.21286 19.6923C9.44058 18.9992 9.54242 18.2692 9.51333 17.5385V15.0769H14.421V17.1282C14.5229 18.9651 13.9911 20.7803 12.9187 22.2564C11.9171 23.4872 10.2144 24.1026 7.81067 24.1026C5.40692 24 3.6041 23.3846 2.60253 22.0513Z" fill="#111111"/>
<path d="M20.3302 0.307617H26.0391L30.2457 23.6922H25.6385L24.8372 18.7692H21.5321L20.7308 23.6922H16.0235L20.3302 0.307617ZM24.4366 15.6922L23.2347 6.56403L22.0329 15.6922H24.4366Z" fill="#111111"/>
<path d="M33.7512 4.20505H30.3459V0.307617H42.2645V4.10249H38.8592V23.6922H33.7512V4.20505Z" fill="#111111"/>
<path d="M51.3787 0.307617H60.1925V2.76916H54.4836V10.4615H59.0908V12.8204H54.4836V21.4358H60.1925V23.7948H51.2786V0.307617H51.3787Z" fill="#111111"/>
<path d="M62.7966 0.307617H65L71.5102 15.7948V0.307617H74.1142V23.6922H72.1111L65.5008 7.69223V23.6922H62.7966V0.307617Z" fill="#111111"/>
<path d="M77.1189 0.307617H85.9327V2.76916H80.2238V10.4615H84.831V12.8204H80.2238V21.4358H85.9327V23.7948H77.1189V0.307617Z" fill="#111111"/>
<path d="M88.5368 0.3076H93.144C94.9564 0.179397 96.7575 0.685711 98.2519 1.7435C99.3537 2.66657 99.8544 4.3076 99.8544 6.46145C99.8544 9.4358 98.953 11.282 97.0501 11.8973L100.255 23.5897H97.1502L94.1455 12.6153H91.6416V23.5897H88.4366V0.3076H88.5368ZM92.9437 10.3589C93.9762 10.446 95.0053 10.1553 95.8482 9.53837C96.4491 9.02555 96.7496 7.99991 96.7496 6.46145C96.7774 5.69719 96.6757 4.93378 96.4491 4.20504C96.2237 3.68211 95.8366 3.24964 95.3474 2.97427C94.6576 2.65236 93.9003 2.51137 93.144 2.56401H91.7418V10.2563H92.9437V10.3589Z" fill="#111111"/>
<path d="M103.861 21.9487C102.82 20.1554 102.331 18.0821 102.459 15.9999V8.20507C102.434 6.71875 102.602 5.23567 102.959 3.79481C103.294 2.71811 103.962 1.78218 104.862 1.12815C105.981 0.450275 107.271 0.128917 108.568 0.20507C110.671 0.20507 112.174 0.71789 113.075 1.8461C114.112 3.33582 114.608 5.14977 114.477 6.9743V7.79481H111.473V7.07687C111.477 6.21789 111.41 5.36008 111.272 4.51276C111.188 3.97732 110.9 3.49792 110.471 3.17943C109.908 2.80104 109.24 2.62099 108.568 2.66661C107.85 2.61949 107.139 2.83785 106.565 3.28199C106.329 3.48529 106.137 3.73569 105.999 4.01787C105.861 4.30004 105.781 4.60805 105.764 4.92302C105.632 5.83993 105.565 6.76543 105.563 7.69225V16.4102C105.49 17.7384 105.694 19.0674 106.164 20.3076C106.565 21.1281 107.366 21.4358 108.568 21.4358C109.043 21.4964 109.524 21.4119 109.952 21.1929C110.38 20.9739 110.734 20.6302 110.972 20.2051C111.501 18.9081 111.741 17.5064 111.673 16.1025V14.4615H108.768V12.1025H114.577V23.6923H112.574L112.274 21.0256C112.011 21.9193 111.465 22.6975 110.72 23.2364C109.976 23.7753 109.078 24.0441 108.167 23.9999C107.34 24.0498 106.513 23.8885 105.761 23.5304C105.01 23.1724 104.357 22.6289 103.861 21.9487Z" fill="#111111"/>
<path d="M120.987 15.4871L116.08 0.410156H119.084L122.59 11.6922L125.995 0.410156H129L124.092 15.4871V23.6922H121.088V15.4871H120.987Z" fill="#111111"/>
</svg>
