<svg width="191" height="39" viewBox="0 0 191 39" fill="none" xmlns="http://www.w3.org/2000/svg">
<path d="M6.07 21.72V19.46C12.7536 18.5423 19.4937 18.0979 26.24 18.13C26.24 18.73 26.24 19.34 26.18 19.95C28.0976 19.099 30.1128 18.4877 32.18 18.13C30.8625 14.722 28.4618 11.8412 25.3471 9.93087C22.2324 8.02052 18.5764 7.18641 14.9414 7.55684C11.3064 7.92727 7.89379 9.48173 5.22852 11.9811C2.56325 14.4805 0.792969 17.7863 0.190001 21.39L6.07 21.72Z" fill="#FDC305"/>
<path d="M27.24 25.23C26.08 26.51 25.85 26.43 25.85 28.68C25.85 29.59 25.85 33.58 25.85 37.86C28.1425 36.346 30.0245 34.2879 31.328 31.8694C32.6315 29.4509 33.3158 26.7474 33.32 24C33.3068 22.9591 33.1997 21.9216 33 20.9C30.9282 22.1295 28.9967 23.5814 27.24 25.23Z" fill="#FDC305"/>
<path d="M6.36 26.72C6.36 26.72 2.57 25.28 1.17 24.89C0.787067 24.7693 0.396097 24.6757 0 24.61C0.108395 27.496 0.965588 30.3041 2.48739 32.7586C4.00919 35.2131 6.14326 37.2296 8.68 38.61L6.36 26.72Z" fill="#FDC305"/>
<path d="M26.29 18.12C26.3307 12.5986 25.862 7.08529 24.89 1.65C24.89 1.65 24.75 0.360004 24 1.41C23.4109 2.65814 23.0067 3.98539 22.8 5.35C18.5418 5.07577 14.2675 5.18958 10.03 5.69C9.24 3 7.85 1.75 7.18 2C6.51 2.25 6.46 5.31 6.46 5.31L6.13 19.41C12.8113 18.506 19.548 18.0749 26.29 18.12Z" fill="#F06351"/>
<path d="M12.41 15C12.41 14.91 13.41 15.68 13.82 15.92C14.23 16.16 14.43 16.34 14.43 16.51C14.43 16.68 14.16 16.85 13.8 16.85C13.44 16.85 12.89 16.73 12.8 16.58H13.74H14.03C13.4207 16.1294 12.8757 15.5978 12.41 15Z" fill="black"/>
<path d="M19.89 15.11L18.8 16.44C18.8 16.5 18.63 16.79 18.98 16.74C19.3942 16.6783 19.8023 16.5812 20.2 16.45C20.31 16.45 20.27 16.26 20.09 16.28C19.91 16.3 19.4 16.33 19.09 16.39L19.93 15.13C19.93 15.13 20 15 19.89 15.11Z" fill="black"/>
<path d="M16.75 21.2C17.2135 20.9958 17.5967 20.6443 17.84 20.2C18.12 19.55 17.84 19.29 17.4 19.2C16.7979 19.0902 16.1765 19.2116 15.66 19.54C15.27 19.9 15.32 20.26 15.61 20.54C15.9613 20.8062 16.3442 21.0279 16.75 21.2Z" fill="black"/>
<path d="M16.35 22.45C16.2379 22.6785 16.0816 22.8825 15.89 23.05C15.6052 23.2791 15.2551 23.4122 14.89 23.43C14.3638 23.472 13.8406 23.3189 13.42 23C13.2222 22.8808 13.0436 22.7324 12.89 22.56C12.7895 22.4491 12.6669 22.3605 12.53 22.3C12.53 22.3 13.28 26.4 15.1 27.05C16.92 27.7 17.24 26.3 17.3 25.92C17.3601 24.7851 17.0742 23.6588 16.48 22.69C16.46 22.38 16.45 22.58 16.35 22.45Z" fill="#F06351"/>
<path d="M14.71 23.59C14.2453 23.5247 13.7989 23.3651 13.3982 23.1209C12.9975 22.8767 12.651 22.5531 12.38 22.17C12.3667 22.157 12.3561 22.1414 12.3489 22.1242C12.3417 22.1071 12.338 22.0886 12.338 22.07C12.338 22.0514 12.3417 22.0329 12.3489 22.0158C12.3561 21.9986 12.3667 21.983 12.38 21.97C12.393 21.9567 12.4086 21.9461 12.4258 21.9389C12.4429 21.9317 12.4614 21.928 12.48 21.928C12.4986 21.928 12.5171 21.9317 12.5342 21.9389C12.5514 21.9461 12.567 21.9567 12.58 21.97C13.0848 22.6642 13.843 23.1313 14.69 23.27C15.0217 23.245 15.3426 23.1413 15.6261 22.9674C15.9096 22.7934 16.1475 22.5544 16.32 22.27L16.46 22.08L16.56 22.29C16.56 22.29 16.93 23.05 17.56 23.09C18.19 23.13 18.61 22.68 19.17 21.81C19.183 21.7967 19.1986 21.7861 19.2158 21.7789C19.2329 21.7717 19.2514 21.768 19.27 21.768C19.2886 21.768 19.3071 21.7717 19.3242 21.7789C19.3414 21.7861 19.357 21.7967 19.37 21.81C19.4023 21.8306 19.4255 21.8629 19.4348 21.9001C19.4441 21.9372 19.4388 21.9766 19.42 22.01C18.78 23.01 18.15 23.45 17.54 23.41C17.308 23.3763 17.0867 23.2904 16.8927 23.1587C16.6987 23.0271 16.5371 22.8531 16.42 22.65C16.2233 22.9245 15.9676 23.1514 15.6717 23.3141C15.3758 23.4767 15.0471 23.571 14.71 23.59Z" fill="black"/>
<path d="M26.24 19.92C24.4445 21.5437 22.7512 23.277 21.17 25.11C19.5986 26.9361 17.8238 28.5768 15.88 30C15.66 29.47 14.26 28.49 14.26 28.49C14.26 28.49 11.13 26.35 9.08 24.67C7.97414 23.7373 6.9287 22.7353 5.95 21.67L3.95 21.56C6.84018 25.7655 11.0702 28.8676 15.95 30.36C16.81 30.22 19.22 28.5 21.02 27.1C23.1389 25.2819 25.124 23.3134 26.96 21.21C27.4625 20.621 27.8493 19.9425 28.1 19.21C27 19.6 26.24 19.92 26.24 19.92Z" fill="#F06351"/>
<path d="M91.2645 30.5385C90.3696 29.2762 89.9253 27.7627 90 26.2308V19.8462C89.8916 18.2977 90.3081 16.7575 91.1855 15.4615C92.0548 14.4615 93.3983 14 95.374 14C97.3498 14 98.6143 14.4615 99.4045 15.3077C100.263 16.3794 100.685 17.7214 100.59 19.0769V20.6154H96.7175V18.8462C96.7488 18.3229 96.6681 17.799 96.4804 17.3077C96.3802 17.1094 96.2212 16.9448 96.024 16.8351C95.8269 16.7255 95.6005 16.6757 95.374 16.6923C94.8208 16.6923 94.4257 16.8462 94.2676 17.2308C94.0888 17.7773 94.0086 18.3499 94.0305 18.9231V27.1539C93.9888 27.71 94.0978 28.267 94.3466 28.7692C94.5047 29.1539 94.8999 29.3077 95.4531 29.3077C96.0063 29.3077 96.3224 29.1539 96.4804 28.7692C96.6601 28.2494 96.7405 27.7019 96.7175 27.1539V25.3077H100.59V26.8462C100.67 28.2238 100.251 29.5852 99.4045 30.6923C98.6143 31.6154 97.2707 32.0769 95.374 32.0769C93.4773 32 92.0548 31.5385 91.2645 30.5385Z" fill="#111111"/>
<path d="M105.253 14.2308H109.757L113.077 31.7692H109.441L108.809 28.0769H106.201L105.569 31.7692H101.854L105.253 14.2308ZM108.493 25.7692L107.545 18.9231L106.596 25.7692H108.493Z" fill="#111111"/>
<path d="M115.843 17.1539H113.156V14.2308H122.56V17.0769H119.873V31.7692H115.843V17.1539Z" fill="#111111"/>
<path d="M129.752 14.2308H136.707V16.0769H132.202V21.8462H135.837V23.6154H132.202V30.0769H136.707V31.8462H129.673V14.2308H129.752Z" fill="#111111"/>
<path d="M138.761 14.2308H140.5L145.637 25.8462V14.2308H147.692V31.7692H146.111L140.895 19.7692V31.7692H138.761V14.2308Z" fill="#111111"/>
<path d="M150.063 14.2308H157.017V16.0769H152.513V21.8462H156.148V23.6154H152.513V30.0769H157.017V31.8462H150.063V14.2308Z" fill="#111111"/>
<path d="M159.072 14.2308H162.707C164.137 14.1346 165.559 14.5144 166.738 15.3077C167.607 16 168.002 17.2308 168.002 18.8462C168.002 21.0769 167.291 22.4615 165.79 22.9231L168.318 31.6923H165.869L163.498 23.4615H161.522V31.6923H158.993V14.2308H159.072ZM162.549 21.7692C163.364 21.8346 164.176 21.6165 164.841 21.1538C165.315 20.7692 165.552 20 165.552 18.8462C165.574 18.273 165.494 17.7004 165.315 17.1538C165.137 16.7617 164.832 16.4373 164.446 16.2308C163.902 15.9893 163.304 15.8836 162.707 15.9231H161.601V21.6923H162.549V21.7692Z" fill="#111111"/>
<path d="M171.164 30.4615C170.342 29.1166 169.956 27.5617 170.057 26V20.1538C170.038 19.0391 170.17 17.9268 170.452 16.8462C170.717 16.0386 171.244 15.3367 171.954 14.8462C172.836 14.3378 173.854 14.0967 174.878 14.1538C176.538 14.1538 177.723 14.5385 178.434 15.3846C179.252 16.5019 179.644 17.8624 179.541 19.2308V19.8462H177.17V19.3077C177.173 18.6635 177.12 18.0201 177.012 17.3846C176.945 16.983 176.718 16.6235 176.379 16.3846C175.935 16.1008 175.408 15.9658 174.878 16C174.311 15.9647 173.75 16.1284 173.297 16.4615C173.111 16.614 172.959 16.8018 172.851 17.0134C172.742 17.2251 172.679 17.4561 172.665 17.6923C172.561 18.38 172.508 19.0741 172.507 19.7692V26.3077C172.449 27.3038 172.61 28.3006 172.981 29.2308C173.297 29.8462 173.93 30.0769 174.878 30.0769C175.252 30.1223 175.632 30.0589 175.97 29.8947C176.307 29.7304 176.587 29.4727 176.775 29.1538C177.192 28.1811 177.381 27.1299 177.328 26.0769V24.8462H175.036V23.0769H179.62V31.7692H178.039L177.802 29.7692C177.595 30.4395 177.163 31.0231 176.576 31.4273C175.989 31.8315 175.28 32.0331 174.562 32C173.909 32.0374 173.256 31.9164 172.663 31.6479C172.07 31.3794 171.555 30.9717 171.164 30.4615Z" fill="#111111"/>
<path d="M184.678 25.6154L180.805 14.3077H183.176L185.942 22.7692L188.629 14.3077H191L187.128 25.6154V31.7692H184.757V25.6154H184.678Z" fill="#111111"/>
</svg>
